<?xml version="1.0" standalone="no"?>
<!DOCTYPE svg PUBLIC "-//W3C//DTD SVG 20010904//EN"
 "http://www.w3.org/TR/2001/REC-SVG-20010904/DTD/svg10.dtd">
<svg version="1.0" xmlns="http://www.w3.org/2000/svg"
 width="260.000000pt" height="260.000000pt" viewBox="0 0 260.000000 260.000000"
 preserveAspectRatio="xMidYMid meet">
<metadata>
Created by potrace 1.14, written by Peter Selinger 2001-2017
</metadata>
<g transform="translate(0.000000,260.000000) scale(0.100000,-0.100000)"
fill="#000000" stroke="none">
<path d="M0 1300 l0 -1300 1300 0 1300 0 0 1300 0 1300 -1300 0 -1300 0 0
-1300z m1450 1045 c0 -33 -2 -35 -35 -35 -33 0 -35 2 -35 35 0 33 2 35 35 35
33 0 35 -2 35 -35z m-500 -62 c0 -31 -2 -33 -35 -33 -33 0 -35 2 -35 33 0 30
2 32 35 33 33 0 35 -1 35 -33z m-368 -120 l3 -68 63 -3 63 -3 -3 -32 c-3 -32
-3 -32 -65 -35 l-62 -3 -3 -57 c-3 -56 -4 -57 -33 -57 -30 0 -30 1 -33 58 l-3
57 -54 0 -55 0 0 35 0 35 55 0 55 0 0 70 0 70 35 0 34 0 3 -67z m1398 -3 l0
-70 60 0 60 0 0 -35 0 -35 -60 0 -60 0 0 -60 0 -60 -35 0 -35 0 0 60 0 60 -60
0 -60 0 0 35 0 35 60 0 60 0 0 70 0 70 35 0 35 0 0 -70z m-360 -100 c0 -27 3
-30 30 -30 27 0 30 -3 30 -30 0 -27 3 -30 29 -30 26 0 30 -4 33 -32 2 -28 8
-34 31 -36 21 -3 27 -9 27 -27 0 -18 6 -24 28 -27 21 -2 28 -9 30 -30 3 -24 8
-28 33 -28 25 0 29 -4 29 -29 0 -25 4 -30 28 -33 21 -2 28 -9 30 -30 3 -24 8
-28 33 -28 26 0 29 -3 29 -30 0 -27 -3 -30 -30 -30 -30 0 -30 -1 -30 -55 0
-54 0 -55 -30 -55 l-30 0 0 -95 c0 -95 0 -95 25 -95 21 0 25 5 25 28 0 16 3
32 7 35 4 4 5 32 4 62 -2 52 -1 55 22 55 23 0 25 -4 29 -69 3 -38 3 -103 0
-146 -5 -74 -6 -77 -28 -72 -22 4 -24 1 -25 -37 -1 -22 -1 -49 0 -59 2 -13 -5
-17 -28 -17 -28 0 -31 -3 -31 -30 0 -28 -3 -30 -36 -30 -19 0 -33 -4 -29 -9 3
-6 3 -28 -1 -50 -5 -34 -10 -40 -33 -43 -23 -3 -26 -8 -26 -38 0 -32 -2 -35
-27 -32 -25 3 -28 0 -28 -27 0 -26 -4 -31 -25 -31 -20 0 -25 -5 -25 -26 0 -26
-1 -26 -62 -22 l-63 3 -3 -62 -3 -63 -72 1 c-59 0 -67 2 -45 10 14 6 29 17 32
25 4 11 -9 14 -74 14 -79 0 -80 0 -80 -25 0 -24 -2 -25 -65 -25 -63 0 -65 1
-65 25 l0 25 -106 0 c-80 0 -105 -3 -102 -12 3 -7 15 -19 29 -25 22 -12 21
-13 -23 -13 l-48 0 0 60 0 60 -30 0 c-27 0 -30 3 -30 31 l0 30 -62 -2 c-62 -3
-63 -2 -66 24 -3 21 -9 27 -28 27 -23 0 -24 3 -24 60 l0 60 -35 0 c-31 0 -35
3 -35 25 0 21 -5 25 -30 25 -26 0 -30 4 -30 26 0 17 -6 28 -20 31 -24 6 -26
21 -5 29 24 9 17 24 -10 24 -25 0 -25 1 -25 84 l0 85 28 3 c34 4 37 25 27 186
-7 110 -7 112 -31 112 -20 0 -24 5 -24 30 0 27 3 30 30 30 l30 0 0 60 0 60 30
0 c25 0 30 4 30 24 0 25 23 40 51 34 8 -2 16 9 19 27 4 24 10 30 30 30 21 0
26 5 28 34 3 29 6 32 27 29 20 -4 24 0 30 29 5 29 10 33 35 33 27 0 30 3 30
30 l0 30 370 0 370 0 0 -30z m-1250 -355 c0 -33 -2 -35 -35 -35 -33 0 -35 2
-35 35 0 33 2 35 35 35 33 0 35 -2 35 -35z m1810 0 c0 -33 -2 -35 -35 -35 -33
0 -35 2 -35 35 0 33 2 35 35 35 33 0 35 -2 35 -35z m-1870 -300 c0 -34 -1 -35
-40 -35 -39 0 -40 1 -40 35 0 34 1 35 40 35 39 0 40 -1 40 -35z m0 -290 c0
-34 -1 -35 -40 -35 -39 0 -40 1 -40 35 0 34 1 35 40 35 39 0 40 -1 40 -35z
m152 -292 l3 -68 58 -3 57 -3 0 -34 0 -35 -60 0 -60 0 0 -60 0 -60 -30 0 -30
0 0 60 0 60 -60 0 -60 0 0 35 0 35 54 0 c62 0 69 8 66 83 -3 59 -3 57 30 57
29 0 29 0 32 -67z m1325 -5 c-3 -8 -6 -5 -6 6 -1 11 2 17 5 13 3 -3 4 -12 1
-19z m253 -63 l0 -65 65 0 65 0 0 -35 0 -35 -65 0 -65 0 0 -60 0 -60 -35 0
-35 0 0 60 0 60 -55 0 -55 0 0 35 0 35 55 0 55 0 0 65 0 65 35 0 35 0 0 -65z
m-887 -122 c-7 -2 -19 -2 -25 0 -7 3 -2 5 12 5 14 0 19 -2 13 -5z m-451 -88
c4 -35 4 -35 -34 -35 -37 0 -38 1 -38 35 0 33 2 35 34 35 31 0 34 -3 38 -35z
m428 -65 l0 -70 60 0 60 0 0 -35 0 -35 -60 0 -60 0 0 -70 0 -70 -29 0 c-29 0
-29 1 -36 70 l-7 70 -59 0 -59 0 0 35 0 35 59 0 58 0 7 70 c7 69 8 70 37 70
l29 0 0 -70z m320 -95 c0 -33 -2 -35 -35 -35 -33 0 -35 2 -35 35 0 33 2 35 35
35 33 0 35 -2 35 -35z"/>
<path d="M880 1990 c0 -27 -3 -30 -30 -30 -25 0 -30 -4 -30 -24 0 -20 6 -24
45 -29 25 -4 65 -4 90 0 39 5 45 9 45 29 0 20 -5 24 -30 24 -27 0 -30 3 -30
30 0 27 -3 30 -30 30 -27 0 -30 -3 -30 -30z"/>
<path d="M1192 1963 l3 -58 58 -2 57 -3 0 60 0 60 -60 0 -61 0 3 -57z"/>
<path d="M1560 1990 c0 -27 -3 -30 -30 -30 -25 0 -30 -4 -30 -24 0 -20 6 -24
45 -29 25 -4 65 -4 90 0 39 5 45 9 45 29 0 20 -5 24 -30 24 -27 0 -30 3 -30
30 0 27 -3 30 -30 30 -27 0 -30 -3 -30 -30z"/>
<path d="M1447 1904 c-4 -4 -7 -18 -7 -31 0 -22 -4 -23 -65 -23 l-65 0 0 -29
c0 -28 -2 -29 -60 -36 l-60 -7 0 -54 0 -54 60 0 60 0 0 60 0 60 58 0 c60 0 89
-11 78 -28 -3 -6 -3 -17 0 -25 4 -12 18 -15 57 -12 l52 3 5 -86 c5 -86 5 -87
32 -90 26 -3 27 -2 30 55 3 55 4 58 31 61 24 3 27 0 27 -27 0 -28 3 -31 30
-31 27 0 30 3 30 30 0 25 4 30 25 30 20 0 25 5 25 24 0 21 6 25 33 28 28 3 32
6 32 33 0 30 -1 30 -57 33 l-58 3 0 -61 0 -60 -30 0 c-27 0 -30 3 -30 30 0 30
-1 30 -55 30 -60 0 -68 7 -32 29 22 15 22 15 -13 23 -19 4 -56 5 -82 1 l-48
-6 0 32 c0 27 4 31 26 31 23 0 25 3 22 33 -2 23 -8 33 -23 35 -12 2 -24 0 -28
-4z"/>
<path d="M1000 1875 c0 -21 5 -25 30 -25 27 0 30 -3 30 -30 l0 -30 65 0 65 0
0 30 0 30 -65 0 c-63 0 -65 1 -65 25 0 21 -5 25 -30 25 -25 0 -30 -4 -30 -25z"/>
<path d="M663 1783 c-29 -4 -33 -8 -33 -34 0 -29 0 -29 63 -29 l62 0 -3 -111
-4 -110 33 3 34 3 1 60 c2 108 1 105 34 105 30 0 30 -1 30 -54 0 -46 3 -56 20
-61 34 -11 40 3 40 91 l0 84 30 0 c25 0 30 4 30 25 0 21 -5 25 -30 25 -25 0
-30 -4 -30 -24 0 -22 -4 -23 -87 -29 -49 -3 -91 -3 -95 0 -5 2 -8 17 -8 34 0
31 -4 32 -87 22z"/>
<path d="M1007 1723 c-4 -3 -7 -17 -7 -30 0 -19 5 -23 30 -23 27 0 30 3 30 30
0 25 -4 30 -23 30 -13 0 -27 -3 -30 -7z"/>
<path d="M1740 1423 c0 -16 16 -31 35 -35 11 -3 -6 -8 -38 -13 -55 -7 -58 -9
-55 -34 3 -27 5 -28 86 -30 l33 -1 -6 -55 -7 -55 36 0 37 0 -3 88 c-3 87 -3
87 -30 90 -22 3 -28 9 -28 28 0 20 -5 24 -30 24 -16 0 -30 -3 -30 -7z"/>
<path d="M630 1291 l0 -91 35 0 36 0 -3 88 -3 87 -32 3 -33 3 0 -90z"/>
<path d="M752 1343 c2 -22 9 -29 29 -31 23 -3 27 1 31 27 4 29 3 31 -29 31
-32 0 -34 -2 -31 -27z"/>
<path d="M1980 1290 c0 -23 10 -26 28 -8 18 18 15 28 -8 28 -13 0 -20 -7 -20
-20z"/>
<path d="M810 1200 l0 -60 -30 0 c-25 0 -30 -4 -30 -25 0 -21 5 -25 30 -25 23
0 31 5 36 25 5 19 13 25 35 25 29 0 29 0 29 60 l0 60 -35 0 -35 0 0 -60z"/>
<path d="M1680 1175 c0 -15 6 -25 14 -25 8 0 21 -3 30 -6 13 -5 16 1 16 25 0
28 -3 31 -30 31 -25 0 -30 -4 -30 -25z"/>
<path d="M1740 1060 c0 -27 3 -30 30 -30 27 0 30 3 30 30 0 27 -3 30 -30 30
-27 0 -30 -3 -30 -30z"/>
<path d="M1560 1025 l0 -55 -90 0 c-89 0 -90 0 -90 -25 0 -23 -3 -25 -52 -25
-61 0 -81 -10 -76 -36 2 -15 -4 -20 -29 -22 l-33 -3 0 -85 0 -84 60 0 60 0 1
38 c1 20 1 61 0 90 l-2 52 58 0 c95 0 131 -9 135 -34 2 -15 11 -22 31 -24 23
-3 27 0 27 22 0 22 4 26 30 26 l30 0 0 90 c0 83 1 90 20 90 13 0 20 7 20 20 0
17 -7 20 -50 20 l-50 0 0 -55z"/>
<path d="M820 1006 c0 -22 4 -26 30 -26 27 0 30 -3 30 -30 0 -27 3 -30 31 -30
28 0 30 -2 29 -32 -4 -72 -2 -78 30 -78 26 0 30 3 30 29 0 25 4 29 28 28 15
-1 57 0 95 1 64 2 67 3 67 27 0 24 -2 25 -65 25 -63 0 -65 1 -65 25 0 23 -4
25 -44 25 -24 0 -64 3 -89 6 -37 5 -47 11 -49 28 -2 15 -11 22 -30 24 -24 3
-28 0 -28 -22z"/>
<path d="M1801 954 c0 -11 3 -14 6 -6 3 7 2 16 -1 19 -3 4 -6 -2 -5 -13z"/>
</g>
</svg>
